{
    "asset" : {
        "generator" : "Khronos glTF Blender I/O v3.3.32",
        "version" : "2.0"
    },
    "scene" : 0,
    "scenes" : [
        {
            "name" : "Scene",
            "nodes" : [
                0
            ]
        }
    ],
    "nodes" : [
        {
            "mesh" : 0,
            "name" : "HALBERT LOIS W_LALAA_001",
            "translation" : [
                0,
                100,
                0
            ]
        }
    ],
    "materials" : [
        {
            "doubleSided" : true,
            "name" : "Material.001",
            "pbrMetallicRoughness" : {
                "baseColorFactor" : [
                    0.5,
                    0.11103089898824692,
                    0.014217088930308819,
                    1
                ],
                "metallicFactor" : 0,
                "roughnessFactor" : 0.5
            }
        }
    ],
    "meshes" : [
        {
            "name" : "HALBERT LOIS W_LALAA_001",
            "primitives" : [
                {
                    "attributes" : {
                        "POSITION" : 0,
                        "NORMAL" : 1
                    },
                    "indices" : 2,
                    "material" : 0
                }
            ]
        }
    ],
    "accessors" : [
        {
            "bufferView" : 0,
            "componentType" : 5126,
            "count" : 23124,
            "max" : [
                60.75790023803711,
                -56.174198150634766,
                19.082500457763672
            ],
            "min" : [
                -19.437999725341797,
                -121.37660217285156,
                -44.93149948120117
            ],
            "type" : "VEC3"
        },
        {
            "bufferView" : 1,
            "componentType" : 5126,
            "count" : 23124,
            "type" : "VEC3"
        },
        {
            "bufferView" : 2,
            "componentType" : 5123,
            "count" : 136992,
            "type" : "SCALAR"
        }
    ],
    "bufferViews" : [
        {
            "buffer" : 0,
            "byteLength" : 277488,
            "byteOffset" : 0,
            "target" : 34962
        },
        {
            "buffer" : 0,
            "byteLength" : 277488,
            "byteOffset" : 277488,
            "target" : 34962
        },
        {
            "buffer" : 0,
            "byteLength" : 273984,
            "byteOffset" : 554976,
            "target" : 34963
        }
    ],
    "buffers" : [
        {
            "byteLength" : 828960,
            "uri" : "data:application/octet-stream;base64,"
        }
    ]
}
